<?xml version="1.0" encoding="UTF-8" standalone="no"?>
<!-- Generator: Adobe Illustrator 15.0.0, SVG Export Plug-In . SVG Version: 6.00 Build 0)  -->

<svg
   xmlns:dc="http://purl.org/dc/elements/1.1/"
   xmlns:cc="http://creativecommons.org/ns#"
   xmlns:rdf="http://www.w3.org/1999/02/22-rdf-syntax-ns#"
   xmlns:svg="http://www.w3.org/2000/svg"
   xmlns="http://www.w3.org/2000/svg"
   xmlns:sodipodi="http://sodipodi.sourceforge.net/DTD/sodipodi-0.dtd"
   xmlns:inkscape="http://www.inkscape.org/namespaces/inkscape"
   version="1.1"
   id="Слой_1"
   x="0px"
   y="0px"
   width="300"
   height="300"
   viewBox="0 0 300 300"
   xml:space="preserve"
   inkscape:version="0.48.3.1 r9886"
   sodipodi:docname="clker_Tuning_Fork_off.svg"><metadata
   id="metadata29"><rdf:RDF><cc:Work
       rdf:about=""><dc:format>image/svg+xml</dc:format><dc:type
         rdf:resource="http://purl.org/dc/dcmitype/StillImage" /><dc:title></dc:title></cc:Work></rdf:RDF></metadata><defs
   id="defs27" /><sodipodi:namedview
   pagecolor="#ffffff"
   bordercolor="#666666"
   borderopacity="1"
   objecttolerance="10"
   gridtolerance="10"
   guidetolerance="10"
   inkscape:pageopacity="0"
   inkscape:pageshadow="2"
   inkscape:window-width="1280"
   inkscape:window-height="744"
   id="namedview25"
   showgrid="false"
   fit-margin-top="0"
   fit-margin-left="0"
   fit-margin-right="0"
   fit-margin-bottom="0"
   showguides="true"
   inkscape:guide-bbox="true"
   inkscape:zoom="0.55625733"
   inkscape:cx="-64.329963"
   inkscape:cy="166.72512"
   inkscape:window-x="0"
   inkscape:window-y="27"
   inkscape:window-maximized="1"
   inkscape:current-layer="g7" />
<g
   id="g3"
   transform="translate(-447.4491,165.11977)">
	<rect
   x="447.4491"
   y="-165.11977"
   style="fill:#000003;fill-rule:evenodd"
   width="300"
   height="300"
   id="rect5" />
	<g
   id="g7">
		
		
		
		
		
		
		
		<path
   style="fill:#ffffff;fill-rule:evenodd"
   d="m 636.05956,88.463234 c -5.24841,-10.1624 -3.69289,-22.013854 2.94484,-30.411912 L 623.15383,27.28936 604.49394,36.966566 c -8.06978,4.131088 -18.008,0.962122 -22.19683,-7.077828 l -58.2693,-112.825804 20.79112,-10.73398 50.73866,98.1735554 c 2.59438,5.023461 8.72806,6.9792876 13.74715,4.383507 l 27.31146,-14.105105 c 5.02347,-2.594384 6.99186,-8.7674674 4.38351,-13.7471474 l -50.68092,-98.203384 20.78674,-10.73541 58.26929,112.825824 c 4.17488,8.0837334 1.00591,18.0219594 -7.07782,22.1968314 l -18.68974,9.6194596 15.90393,30.730748 c 10.6933,-0.5453 21.29841,5.054992 26.50303,15.203437 7.14545,13.757704 1.72889,30.744624 -12.07558,37.87033 -13.80883,7.12432 -30.75198,1.72172 -37.87908,-12.078366 z"
   id="path23"
   inkscape:connector-curvature="0" />
	</g>
</g>
</svg>